<?xml version="1.0" standalone="no"?>
<!DOCTYPE svg PUBLIC "-//W3C//DTD SVG 20010904//EN"
 "http://www.w3.org/TR/2001/REC-SVG-20010904/DTD/svg10.dtd">
<svg version="1.0" xmlns="http://www.w3.org/2000/svg"
 width="750.000000pt" height="793.000000pt" viewBox="0 0 750.000000 793.000000"
 preserveAspectRatio="xMidYMid meet">
<metadata>
Created by potrace 1.16, written by Peter Selinger 2001-2019
</metadata>
<g transform="translate(0.000000,793.000000) scale(0.100000,-0.100000)"
fill="#3366CC" stroke="none">
<path d="M126 7776 c-3 -14 -16 -26 -31 -30 l-25 -6 0 -1779 c0 -1613 1 -1779
16 -1785 9 -3 71 -6 139 -6 132 0 155 -4 155 -27 0 -10 9 -13 28 -11 22 2 27
8 29 33 0 17 2 36 2 43 1 8 18 12 51 12 l50 0 0 -44 c0 -55 9 -58 147 -49 88
5 103 9 108 25 5 15 17 18 66 18 52 0 61 -3 68 -22 8 -21 12 -21 210 -23 l203
-2 10 23 c10 21 18 24 68 24 51 0 58 -3 68 -25 15 -32 40 -32 52 0 9 22 15 25
64 25 45 0 58 -4 70 -21 14 -21 23 -22 203 -23 l189 -1 33 28 c18 15 39 27 47
27 8 0 14 9 14 20 0 12 10 25 24 32 19 8 26 20 28 47 2 26 9 39 26 46 17 7 22
17 20 40 -2 36 7 55 28 55 10 0 14 12 14 40 0 33 4 42 25 52 18 8 25 19 25 40
0 64 100 119 108 59 3 -21 8 -23 38 -18 30 5 37 1 78 -44 24 -27 49 -49 55
-49 6 0 13 -11 17 -25 8 -32 38 -33 59 -2 13 21 15 70 13 348 l-3 324 -47 3
c-39 3 -49 -1 -62 -20 -9 -12 -16 -34 -16 -49 0 -15 -7 -29 -16 -33 -35 -14
-48 26 -14 44 15 8 20 21 20 51 0 33 -4 41 -24 49 -13 5 -27 18 -31 29 -8 26
-65 30 -65 5 0 -20 -59 -76 -71 -68 -5 3 -5 14 1 25 6 11 10 48 9 83 -2 67 4
86 27 86 11 0 14 14 14 60 l0 60 -45 0 -45 0 0 50 0 50 50 0 50 0 0 -45 0 -45
84 0 c75 0 84 2 89 20 3 11 17 24 31 30 25 9 26 12 26 99 0 49 -4 93 -10 96
-13 8 -13 25 1 25 17 0 69 -57 69 -75 0 -13 10 -15 58 -13 l57 3 5 45 5 45 48
2 48 2 -3 -52 -3 -52 -40 0 c-38 0 -40 -2 -43 -32 -2 -24 1 -33 17 -38 11 -3
23 -15 26 -25 3 -10 15 -22 26 -25 26 -9 24 -24 -6 -35 -29 -11 -34 -47 -7
-57 26 -9 52 -34 46 -44 -3 -5 5 -9 18 -10 l23 0 -22 -9 c-13 -5 -23 -17 -23
-26 0 -8 -14 -21 -30 -27 -30 -11 -31 -14 -28 -67 l3 -55 45 -5 c37 -4 46 -9
48 -27 2 -15 -2 -23 -11 -23 -8 0 -21 10 -30 23 l-15 22 -25 -27 c-14 -16 -30
-28 -35 -28 -5 0 -12 -9 -15 -21 -7 -26 -31 -20 -35 9 -5 31 -48 30 -58 0 -4
-13 -13 -28 -21 -33 -12 -9 -15 -59 -17 -276 -2 -145 -7 -297 -11 -336 -8 -78
-7 -79 48 -75 26 3 57 -16 57 -33 0 -12 18 -15 93 -15 90 0 94 1 105 25 7 14
20 25 31 25 13 0 21 8 23 23 2 12 13 26 25 32 16 7 23 20 25 45 3 33 5 35 38
36 51 2 70 -5 70 -27 0 -16 7 -19 53 -19 45 0 54 3 62 23 6 12 20 23 33 25 19
3 22 9 22 48 0 40 2 44 25 44 24 0 25 2 25 70 0 59 3 72 20 82 26 16 26 44 0
58 -29 16 -29 114 0 130 26 14 26 42 0 58 -19 11 -20 23 -20 194 0 177 0 181
19 164 11 -10 31 -16 47 -14 28 3 29 2 29 -47 0 -48 -1 -50 -27 -50 -36 1 -55
-41 -42 -93 8 -32 13 -37 39 -37 29 0 30 -1 30 -49 1 -46 -13 -76 -36 -76 -18
0 -9 -39 11 -45 23 -7 22 -4 25 -68 2 -41 -1 -50 -21 -64 -29 -19 -31 -49 -4
-58 11 -3 20 -9 21 -13 0 -4 2 -28 4 -54 4 -45 3 -48 -21 -48 -25 0 -25 0 -22
-87 l3 -88 44 -3 c32 -2 44 -8 48 -22 3 -10 18 -24 33 -30 15 -6 30 -20 33
-31 7 -25 37 -24 44 2 3 11 17 25 30 30 14 5 27 18 30 28 9 34 63 37 63 5 0
-8 11 -19 24 -25 13 -6 29 -22 35 -35 8 -19 18 -24 50 -24 54 0 73 21 71 79
-3 74 -5 71 46 64 38 -5 46 -3 42 8 -10 27 11 51 40 45 38 -8 50 3 54 49 3 38
5 40 37 40 26 0 36 5 42 23 7 17 16 22 46 22 30 0 40 5 48 23 10 22 12 22 225
22 213 0 215 0 225 -22 8 -18 18 -23 48 -23 31 0 39 -4 47 -25 13 -33 47 -33
60 0 l10 25 200 2 c110 0 206 1 213 2 7 1 13 -14 15 -37 2 -29 7 -37 18 -33 8
3 14 1 14 -3 0 -5 -6 -11 -12 -13 -7 -3 4 -5 25 -6 28 -1 45 -10 70 -34 18
-19 36 -41 40 -51 5 -13 18 -17 52 -17 39 0 47 3 55 24 5 13 18 27 28 30 11 4
22 16 25 26 4 18 14 20 74 20 l68 0 53 -54 c39 -40 52 -60 52 -83 0 -22 6 -32
20 -36 11 -3 24 -17 30 -31 5 -14 16 -26 25 -26 8 0 21 -11 27 -25 10 -23 16
-25 82 -25 64 0 72 2 81 23 6 12 20 23 33 25 21 3 22 7 22 112 0 103 -1 109
-21 112 -21 3 -22 5 -23 303 l-1 300 -50 5 c-48 5 -50 6 -48 34 4 52 -53 78
-75 34 -7 -13 -13 -54 -14 -92 l-3 -68 -115 0 c-128 0 -116 -7 -119 70 -1 21
-5 22 -79 22 -71 0 -78 -2 -87 -22 -6 -13 -20 -24 -32 -26 -13 -2 -23 -12 -25
-25 -3 -20 -7 -21 -109 -18 l-106 2 -7 -25 c-6 -26 -8 -26 -96 -26 -82 0 -90
-2 -90 -19 0 -27 -18 -31 -141 -31 -107 0 -110 1 -121 25 -11 24 -15 25 -95
25 -81 0 -84 1 -93 26 -9 23 -15 26 -40 21 -29 -6 -60 12 -60 34 0 5 -14 9
-30 9 -22 0 -42 10 -65 34 -19 18 -35 38 -35 43 0 6 -9 13 -21 16 -11 3 -23
15 -26 26 -7 27 -49 29 -56 2 -3 -14 -17 -19 -58 -24 -30 -2 -56 -3 -58 -1 -2
1 -3 53 -2 114 2 105 1 110 -19 110 -12 0 -25 10 -32 25 -6 13 -17 25 -26 27
-12 3 -14 39 -14 242 1 181 4 241 13 247 7 4 17 5 21 3 4 -3 8 13 8 36 0 34 4
42 26 50 23 9 25 15 24 58 -3 74 -1 80 20 87 14 4 20 15 20 36 0 24 22 51 125
155 115 116 127 125 154 119 25 -5 29 -3 35 19 6 24 10 26 70 26 57 0 64 2 74
25 l12 25 262 -2 c262 -3 263 -3 266 -25 3 -18 11 -22 45 -25 32 -2 44 -8 52
-26 8 -18 15 -21 42 -16 29 5 34 3 43 -20 5 -14 16 -26 25 -26 8 0 21 -12 27
-26 10 -22 16 -25 44 -20 35 7 45 -4 37 -45 -4 -20 1 -28 21 -37 14 -6 26 -19
26 -27 0 -9 12 -20 26 -25 22 -9 26 -15 21 -39 -5 -23 -1 -32 22 -48 23 -17
27 -27 23 -56 -3 -31 -1 -36 20 -39 22 -3 23 -7 26 -95 2 -85 4 -93 22 -93 11
0 20 -4 21 -10 0 -5 0 -59 0 -120 0 -60 0 -114 0 -120 -1 -5 -9 -10 -19 -10
-16 0 -19 -9 -21 -62 -2 -67 -13 -90 -37 -81 -13 5 -15 -5 -13 -54 2 -63 -4
-83 -26 -83 -12 0 -25 -21 -25 -40 0 -5 7 -16 16 -24 12 -13 41 -16 155 -16
l139 0 14 35 c8 19 22 35 31 35 14 0 16 14 14 102 -2 103 8 131 31 89 13 -25
50 -28 50 -5 0 9 14 21 30 27 17 6 30 18 30 27 1 8 10 26 21 40 17 20 30 25
68 25 l46 0 3 48 3 48 52 -3 c47 -3 52 -5 51 -27 -1 -22 1 -23 64 -19 64 4 65
4 76 -24 9 -25 15 -28 51 -25 l40 2 0 -45 0 -45 -48 -3 -47 -3 0 -82 1 -82 44
-28 c44 -28 65 -67 28 -52 -44 18 -53 17 -62 -8 -10 -25 -27 -41 -46 -42 -6 0
-9 -27 -8 -63 l1 -62 -43 0 c-38 0 -44 -3 -47 -22 -3 -21 -10 -23 -73 -28
l-70 -5 -3 -276 c-2 -230 -5 -279 -17 -289 -21 -17 -19 -69 5 -108 11 -18 20
-40 20 -48 0 -13 11 -15 58 -12 54 3 61 0 90 -27 l32 -30 0 -107 c0 -103 1
-107 23 -110 14 -2 23 -11 25 -25 5 -33 43 -36 295 -29 248 7 257 8 275 20 21
13 25 0 23 -63 -1 -29 -3 -32 -16 -21 -8 7 -15 19 -15 26 0 23 -102 18 -150
-7 -39 -21 -40 -22 -40 -75 0 -47 2 -54 20 -54 11 0 30 6 41 12 18 11 23 10
43 -15 12 -15 32 -27 45 -27 23 0 23 -2 17 -52 -4 -29 -12 -59 -19 -66 -9 -11
-6 -18 13 -34 24 -19 24 -19 35 2 13 24 25 17 25 -16 0 -13 -8 -24 -20 -27
-17 -4 -20 -14 -20 -57 0 -43 4 -57 25 -76 26 -24 34 -75 16 -103 -7 -11 -11
-10 -20 7 -6 11 -11 27 -11 35 0 8 -8 25 -18 38 -10 13 -24 43 -30 65 -7 24
-23 49 -36 57 -22 15 -24 15 -29 -3 -6 -22 -37 -26 -55 -8 -16 16 -16 68 1 68
6 0 13 14 14 33 2 25 -2 34 -22 44 -24 11 -25 10 -25 -22 0 -28 -4 -33 -31
-39 -42 -8 -52 1 -46 41 5 28 1 38 -19 55 -26 24 -31 47 -12 66 9 9 7 16 -9
32 -12 10 -24 28 -28 40 -3 11 -12 20 -19 20 -13 0 -53 39 -48 46 2 4 -4 5
-10 3 -16 -5 -58 -3 -58 3 0 4 -4 8 -10 8 -5 0 -6 -7 -3 -17 4 -9 2 -14 -3
-11 -12 6 -54 -38 -45 -48 3 -4 -1 -5 -9 -2 -13 5 -16 -3 -16 -42 0 -43 3 -50
23 -55 13 -3 23 -12 23 -20 0 -8 12 -21 27 -28 19 -11 27 -23 29 -47 3 -32 25
-60 32 -40 7 20 59 11 69 -12 6 -14 19 -23 34 -23 22 0 24 -3 21 -47 -3 -40
-1 -47 18 -53 33 -11 24 -59 -12 -63 -20 -2 -28 -9 -28 -23 0 -11 4 -18 9 -15
16 10 88 -70 87 -97 -1 -14 2 -23 6 -21 4 3 8 -2 8 -10 0 -9 7 -16 15 -16 8 0
15 -6 15 -14 0 -7 12 -21 26 -30 16 -11 25 -25 24 -39 -3 -34 -1 -51 6 -44 3
3 15 -2 26 -13 15 -14 18 -27 14 -56 -2 -22 -2 -33 0 -26 10 21 23 13 38 -23
8 -19 22 -35 30 -35 9 0 16 -6 17 -12 1 -7 4 -2 8 11 11 40 28 35 34 -10 7
-52 0 -72 -24 -66 -30 8 -26 -65 5 -95 13 -13 27 -39 30 -58 18 -93 18 -105
-2 -130 l-21 -25 -15 37 c-9 20 -20 39 -26 43 -5 3 -10 23 -10 44 0 30 -4 40
-20 44 -24 6 -27 39 -5 57 19 16 19 37 1 47 -14 8 -16 12 -16 33 0 6 -7 10
-15 10 -20 0 -35 40 -23 63 5 9 5 16 1 15 -18 -5 -52 23 -46 38 3 9 0 20 -8
25 -10 6 -10 9 -1 9 21 0 13 20 -13 30 -14 5 -25 17 -25 26 0 10 -3 14 -7 11
-7 -7 -53 39 -53 53 0 4 5 10 10 12 6 2 1 14 -11 26 -19 21 -22 22 -33 7 -16
-22 -48 -16 -61 12 -5 13 -20 23 -35 25 -23 3 -25 6 -24 57 1 30 7 57 14 61
16 10 5 40 -14 40 -16 0 -28 32 -23 60 1 8 -2 17 -8 19 -17 8 -35 29 -35 42 0
7 -3 10 -6 6 -11 -10 -44 33 -44 58 0 13 -9 33 -20 43 -11 10 -21 33 -23 51
-4 38 -27 55 -58 46 -16 -5 -31 4 -65 39 -24 25 -48 46 -54 46 -6 0 -15 11
-22 24 -10 23 -15 25 -75 21 -72 -4 -94 -15 -73 -40 7 -8 19 -15 27 -15 25 0
11 -44 -17 -50 -33 -8 -39 -37 -8 -42 19 -2 24 -10 26 -42 2 -28 9 -40 23 -43
10 -3 22 -16 25 -28 3 -12 17 -28 31 -34 21 -9 24 -16 18 -40 -5 -25 -2 -32
23 -47 17 -9 28 -23 25 -29 -2 -7 7 -15 22 -19 25 -6 27 -11 23 -46 -3 -34 -1
-39 14 -34 13 4 19 -4 27 -32 6 -20 8 -41 5 -45 -2 -4 4 -10 15 -14 11 -3 26
-19 33 -35 7 -17 20 -30 29 -30 22 0 31 -24 19 -54 -7 -21 -5 -25 14 -30 12
-3 28 -17 34 -31 6 -14 18 -25 27 -25 13 0 22 -37 16 -72 0 -4 7 -4 17 -1 9 3
14 3 10 -2 -4 -4 0 -14 8 -23 9 -8 14 -23 11 -32 -5 -21 1 -31 28 -47 11 -6
19 -16 18 -22 -2 -5 10 -19 26 -30 23 -17 27 -26 23 -52 -3 -21 -1 -30 6 -25
12 7 54 -42 46 -55 -3 -5 -2 -9 3 -8 22 4 32 -4 42 -32 14 -40 14 -52 1 -44
-5 3 -10 1 -10 -5 0 -7 6 -10 13 -7 24 9 41 -11 40 -46 -1 -37 30 -69 41 -42
9 24 51 18 64 -9 6 -14 21 -26 34 -28 29 -4 36 -50 15 -101 -16 -36 -12 -50
15 -60 10 -3 19 0 22 9 3 9 10 12 16 9 15 -9 12 -45 -4 -45 -14 0 -26 -21 -26
-45 0 -8 10 -15 23 -17 20 -3 22 -9 25 -68 2 -36 0 -81 -3 -100 -6 -33 -8 -34
-21 -15 -8 10 -14 36 -14 57 0 42 -14 73 -45 99 -12 11 -20 30 -20 50 0 19 -6
34 -14 37 -9 3 -11 0 -6 -8 5 -9 4 -11 -4 -6 -6 4 -9 12 -6 17 4 5 1 9 -4 9
-6 0 -11 6 -11 14 0 7 -12 21 -26 31 -19 12 -25 23 -21 41 2 14 2 22 -1 20
-12 -12 -42 40 -42 71 0 27 -5 36 -20 40 -11 3 -23 16 -26 30 -4 13 -8 22 -11
19 -3 -2 -13 3 -23 12 -13 11 -17 24 -13 43 4 22 0 30 -26 45 -20 12 -29 24
-26 33 3 9 3 12 -1 9 -15 -15 -44 29 -40 61 2 22 0 31 -9 28 -22 -9 -36 10
-38 51 -1 30 -6 42 -17 43 -8 0 -32 21 -53 46 -32 38 -36 48 -25 61 10 12 10
14 0 8 -6 -4 -12 -3 -12 1 0 5 -12 22 -27 38 -16 16 -27 32 -25 35 1 3 -2 5
-7 5 -16 0 -21 11 -23 54 -1 23 -5 37 -9 30 -8 -14 -41 31 -38 53 3 27 -2 35
-27 46 -14 7 -22 17 -19 22 3 5 -5 15 -19 22 -27 12 -29 16 -27 58 1 17 -5 28
-21 35 -12 6 -25 20 -28 33 -3 13 -8 23 -12 23 -24 -2 -28 1 -28 24 0 14 -5
25 -12 25 -9 0 -9 3 0 12 14 14 16 32 2 23 -14 -8 -53 34 -46 51 3 8 0 14 -7
14 -8 0 -8 3 2 9 11 7 9 10 -7 15 -11 4 -23 18 -26 31 -3 13 -15 27 -26 30
-22 7 -21 6 -24 50 -1 18 -7 29 -14 27 -7 -1 -20 14 -28 33 -8 19 -17 35 -20
35 -3 0 -2 -5 2 -11 3 -6 -5 -3 -20 6 -14 10 -26 25 -26 34 0 10 -9 17 -20 18
-11 1 -20 -3 -20 -8 0 -6 -4 -7 -10 -4 -6 3 -7 -1 -4 -10 5 -11 -2 -17 -22
-21 -20 -4 -34 -16 -44 -37 -8 -18 -21 -33 -27 -33 -24 -3 -25 -4 -14 -17 6
-8 9 -16 7 -18 -3 -3 -6 -35 -7 -72 -2 -60 -5 -68 -24 -73 -20 -5 -22 -12 -24
-85 -2 -95 -7 -109 -31 -104 -15 3 -18 -1 -14 -18 5 -21 8 -137 4 -147 -1 -3
-4 -16 -6 -30 -3 -14 -9 -27 -14 -28 -6 -2 -8 -8 -5 -13 4 -5 0 -6 -8 -3 -18
6 -32 -12 -17 -21 6 -4 8 -10 5 -14 -2 -5 -6 -38 -7 -75 -2 -59 -5 -67 -24
-72 -19 -5 -21 -13 -23 -86 -2 -59 -6 -85 -18 -97 -9 -9 -19 -16 -22 -16 -6 0
-6 -11 0 -30 1 -5 -1 -70 -6 -143 -7 -123 -9 -134 -29 -142 -20 -7 -21 -15
-20 -114 0 -103 -1 -107 -23 -112 -12 -3 -22 -9 -21 -13 4 -12 -27 -51 -39
-51 -15 0 -17 -19 -4 -39 5 -7 5 -28 1 -46 -6 -28 -4 -35 16 -46 21 -11 24
-20 24 -66 0 -51 -1 -53 -27 -53 -16 -1 -39 -9 -51 -20 -21 -18 -23 -25 -17
-68 5 -37 3 -51 -9 -61 -8 -7 -19 -10 -24 -7 -4 2 -9 -34 -11 -81 -2 -96 -4
-103 -30 -103 -16 0 -18 -10 -16 -102 2 -100 -10 -148 -31 -130 -5 4 -6 3 -1
-2 4 -5 0 -18 -9 -28 -14 -14 -16 -30 -10 -81 5 -54 4 -65 -13 -79 -11 -9 -21
-15 -23 -13 -2 2 -3 -32 -4 -74 0 -78 -13 -111 -44 -111 -7 0 -10 -32 -9 -99
1 -77 -2 -103 -14 -115 -8 -8 -17 -13 -20 -10 -10 10 -18 -58 -15 -121 3 -58
2 -60 -21 -57 -20 3 -23 1 -16 -15 4 -10 7 -25 6 -33 -1 -8 -2 -27 -2 -42 0
-32 -24 -39 -32 -9 -4 15 -14 19 -56 19 -29 0 -55 3 -59 6 -12 13 15 41 49 51
l35 10 -2 62 c-1 34 -5 67 -10 74 -5 8 -3 9 6 4 10 -6 12 -4 7 9 -5 11 2 22
21 34 26 16 27 20 24 88 -2 57 1 74 16 92 11 12 22 19 25 16 3 -4 5 41 4 100
l-2 107 27 12 c25 10 27 16 22 45 -4 18 -3 57 1 87 5 45 10 56 29 61 20 5 21
10 18 75 -5 75 11 124 35 115 8 -3 13 0 12 7 -1 6 -1 46 0 88 1 71 3 77 27 87
17 8 24 18 20 30 -6 20 -8 124 -3 167 2 18 10 31 20 33 10 2 14 8 10 14 -4 7
0 9 10 5 10 -3 17 -2 17 3 0 6 -3 10 -7 10 -5 0 -6 32 -5 72 3 63 7 75 30 96
15 14 20 21 12 17 -12 -6 -13 -5 -3 6 8 7 13 39 13 74 0 60 11 86 34 81 6 -2
8 -1 4 1 -5 3 -8 9 -8 14 0 6 4 7 10 4 11 -7 14 8 4 18 -6 5 -8 114 -3 135 1
4 1 14 0 23 -2 17 28 49 44 46 12 -2 8 236 -5 318 -5 33 -11 69 -12 80 -3 17
3 20 32 20 l35 1 5 129 5 130 43 -2 c23 -1 42 3 42 8 0 5 1 12 3 16 1 4 -11
10 -28 13 -38 7 -61 48 -47 88 8 24 13 27 47 24 l38 -4 -7 40 c-6 40 10 72 35
72 5 0 9 47 9 104 0 101 1 105 23 108 19 3 22 10 25 51 3 40 7 50 28 59 28 13
33 60 9 94 -13 19 -24 21 -146 21 -150 1 -166 -6 -165 -70 1 -27 7 -39 24 -48
18 -10 22 -21 22 -63 0 -58 -11 -82 -33 -73 -14 5 -16 -11 -16 -125 0 -71 -1
-131 -3 -132 -2 -2 -12 -8 -22 -13 -18 -10 -19 -21 -17 -116 3 -115 0 -119
-59 -113 -35 4 -44 -4 -23 -19 10 -7 14 -17 10 -21 -4 -5 -12 -2 -17 6 -8 12
-10 10 -10 -8 0 -15 4 -21 12 -16 7 4 2 -7 -11 -24 -12 -18 -26 -30 -31 -27
-14 9 -23 -81 -16 -151 4 -41 3 -64 -4 -64 -5 0 -10 -8 -10 -17 0 -14 -2 -15
-9 -4 -13 21 -18 2 -16 -69 1 -36 -3 -74 -9 -85 -6 -11 -10 -23 -11 -27 0 -12
-15 -22 -15 -10 0 7 -4 12 -10 12 -5 0 -9 -43 -9 -102 1 -133 2 -128 -18 -128
-9 0 -14 -3 -10 -6 3 -4 -1 -14 -10 -22 -13 -13 -15 -32 -10 -104 5 -78 4 -89
-12 -98 -10 -5 -21 -7 -23 -4 -3 3 -4 -32 -3 -77 2 -69 0 -84 -17 -101 -10
-10 -22 -17 -27 -14 -4 3 -7 -8 -7 -24 0 -17 4 -26 11 -24 25 10 36 -24 33
-98 -3 -67 -5 -73 -24 -72 -19 0 -21 -6 -23 -70 -2 -64 -13 -92 -32 -80 -12 7
-16 -19 -13 -86 4 -79 -2 -100 -26 -100 -17 0 -18 -11 -19 -151 -1 -84 -4
-155 -6 -159 -3 -5 -22 -7 -44 -5 l-39 2 0 -71 c0 -57 -8 -278 -11 -308 -1 -5
-8 -8 -16 -8 -8 0 -19 -9 -25 -20 -6 -11 -17 -20 -25 -20 -7 0 -17 -5 -21 -12
-5 -7 -2 -8 7 -3 11 6 12 5 2 -6 -7 -7 -13 -38 -13 -68 1 -51 2 -54 15 -37 8
11 17 17 20 14 3 -3 -4 -16 -15 -30 -10 -14 -16 -28 -13 -32 4 -4 -2 -9 -14
-12 -15 -4 -20 -11 -16 -22 4 -10 2 -13 -5 -8 -7 4 -12 2 -12 -4 0 -7 9 -14
20 -17 40 -11 13 -28 -49 -31 -36 -2 -59 -7 -56 -13 10 -15 -24 -23 -40 -9
-22 18 -19 51 5 57 16 4 19 11 15 33 -5 27 9 41 40 44 6 1 10 36 10 83 0 72 3
84 23 103 33 31 30 74 -8 90 -25 10 -30 18 -30 46 0 18 -4 44 -10 58 -14 37
-3 56 31 56 27 0 29 3 29 38 0 45 37 105 83 133 18 10 26 19 20 19 -7 0 -13
12 -13 28 0 21 2 24 11 12 7 -11 9 3 7 50 -3 57 -1 65 18 75 20 10 22 19 22
94 0 45 2 85 5 87 3 3 14 6 25 7 18 1 20 8 20 67 1 108 2 120 10 119 4 -1 16
-1 27 0 14 1 16 4 7 13 -8 8 -8 17 0 31 7 13 8 50 5 97 -6 75 -6 77 19 89 24
11 25 15 23 88 -2 69 0 78 21 95 22 18 24 27 26 144 2 123 11 158 37 148 9 -3
12 25 12 103 0 96 2 109 21 128 18 18 21 35 23 114 2 100 7 124 23 115 18 -11
25 15 27 94 2 68 5 80 26 98 14 12 22 23 19 26 -3 3 6 8 19 12 24 6 25 9 26
102 2 71 -2 99 -11 105 -9 6 -7 9 7 9 15 0 17 2 6 9 -11 7 -9 10 8 16 11 3 24
4 29 1 4 -2 9 7 10 20 1 14 -2 23 -7 20 -5 -4 -7 3 -4 14 4 13 -1 26 -12 34
-24 17 -13 45 33 79 37 27 37 27 35 95 -3 81 2 98 27 105 17 4 19 14 18 101
-1 52 -4 93 -8 91 -4 -2 -21 11 -39 29 -31 32 -37 34 -102 34 -38 0 -67 -4
-64 -9 6 -9 -25 -44 -46 -51 -9 -3 -13 -22 -13 -62 1 -48 -2 -60 -21 -72 -19
-12 -21 -22 -20 -95 0 -78 -1 -82 -28 -101 -29 -21 -29 -21 -25 -115 3 -85 1
-96 -17 -109 -19 -14 -26 -60 -26 -178 0 -39 -17 -69 -36 -62 -11 5 -14 -1
-13 -22 1 -15 2 -67 1 -115 -1 -81 -3 -88 -23 -96 -20 -7 -22 -15 -24 -88 -2
-85 -8 -107 -28 -100 -8 3 -12 -17 -14 -71 -2 -87 -8 -112 -27 -112 -18 0 -27
-32 -21 -74 6 -36 -12 -66 -39 -66 -11 0 -14 -21 -13 -97 0 -176 0 -180 -21
-186 -17 -4 -19 -16 -20 -128 -1 -101 -5 -126 -18 -136 -9 -7 -19 -10 -23 -8
-5 3 -9 -54 -9 -127 -1 -72 -4 -135 -7 -140 -3 -4 -14 -8 -25 -8 -20 0 -20 -5
-18 -152 l3 -153 -31 -33 c-25 -28 -36 -33 -62 -29 -18 3 -34 0 -38 -6 -5 -7
-9 -49 -9 -94 -1 -59 -6 -87 -17 -98 -12 -11 -17 -12 -20 -2 -3 6 -5 -28 -5
-76 1 -86 -7 -112 -35 -112 -7 0 -12 -27 -13 -81 -1 -88 -6 -104 -32 -104 -14
0 -17 -9 -15 -42 2 -61 7 -79 26 -90 24 -13 12 -28 -21 -28 -34 0 -57 14 -48
29 9 14 -9 14 -36 0 -15 -8 -19 -8 -14 0 4 6 3 11 -1 11 -10 0 -8 144 2 159 3
6 12 8 19 5 11 -4 14 9 14 58 1 234 4 254 32 261 11 3 20 9 19 14 -1 4 -1 31
0 60 1 49 13 74 43 86 10 4 9 8 -2 16 -13 10 -13 12 0 21 17 11 16 11 -50 14
l-35 1 0 50 c0 54 -5 51 73 54 22 1 23 3 19 86 -4 90 5 111 38 99 10 -4 21 -1
26 7 7 11 9 11 9 1 0 -7 4 -10 10 -7 6 3 10 13 10 21 0 8 -4 13 -8 10 -5 -3
-4 10 2 29 7 23 20 38 36 44 14 5 19 10 13 10 -7 1 -13 6 -13 12 0 5 5 7 11 3
9 -5 11 12 7 65 -4 58 -2 75 12 91 9 11 20 17 23 13 4 -3 5 22 3 56 -5 76 4
113 30 126 17 9 20 21 22 89 1 82 12 108 40 99 15 -4 15 -3 2 6 -12 9 -13 13
-2 20 9 5 13 27 11 72 -3 67 5 94 26 86 9 -4 12 20 13 100 0 99 2 106 26 132
23 24 26 35 25 87 -2 71 7 104 26 104 20 0 28 39 22 103 -6 56 -2 70 23 79 12
4 16 25 18 88 2 65 6 86 20 96 9 7 20 10 24 8 3 -2 6 26 6 63 0 230 1 243 22
243 11 0 20 7 20 15 0 8 10 25 22 37 16 16 24 37 26 73 2 37 8 55 25 70 18 17
22 30 22 80 -1 81 7 110 30 110 15 0 18 8 18 50 0 44 -3 51 -29 66 -16 9 -28
24 -28 33 2 15 -108 16 -1377 16 l-1378 0 -18 -30 c-9 -17 -24 -32 -33 -35
-11 -3 -15 -19 -15 -55 0 -35 3 -49 12 -46 20 8 37 -24 35 -67 -2 -33 0 -39 9
-27 8 11 12 12 16 3 2 -7 18 -13 33 -13 36 0 38 -4 31 -65 -5 -40 -10 -51 -26
-53 -17 -2 -20 -10 -19 -50 1 -39 4 -47 20 -47 20 0 34 -43 27 -85 -2 -12 2
-30 9 -38 10 -12 10 -14 1 -8 -7 4 -13 5 -13 1 0 -3 11 -10 25 -15 14 -5 25
-18 25 -27 0 -10 10 -23 21 -28 21 -10 22 -16 22 -188 1 -138 3 -177 13 -173
25 9 36 -24 37 -108 0 -67 3 -83 13 -75 15 13 40 -26 35 -55 -1 -10 3 -23 11
-27 10 -7 10 -9 1 -9 -7 0 -13 -5 -13 -11 0 -6 7 -9 15 -5 8 3 15 1 15 -4 0
-5 14 -7 30 -3 l30 6 0 -62 c0 -61 -5 -68 -42 -62 -3 0 -6 -32 -5 -73 1 -63 4
-72 18 -69 23 6 31 -24 31 -119 0 -62 3 -78 14 -74 17 7 44 -31 37 -51 -4 -9
3 -23 17 -33 22 -16 22 -22 22 -173 0 -88 4 -154 9 -151 5 3 9 0 9 -6 0 -6 4
-9 9 -6 15 10 24 -26 22 -87 -2 -39 1 -57 9 -57 9 0 10 -3 1 -13 -8 -10 -4
-18 17 -34 26 -19 28 -26 27 -77 -2 -46 1 -56 13 -51 9 3 12 0 9 -8 -3 -9 4
-12 29 -9 l34 4 0 -87 0 -88 34 6 c39 6 46 -3 46 -63 0 -30 -8 -48 -31 -75
-17 -19 -35 -32 -40 -29 -6 3 -8 -10 -6 -32 2 -21 10 -40 18 -43 29 -9 37 -36
35 -113 -2 -43 1 -75 6 -72 22 14 34 -24 31 -103 -2 -69 0 -83 13 -83 9 0 12
5 8 12 -4 7 -3 8 5 4 6 -4 9 -11 6 -16 -3 -4 2 -13 10 -20 10 -8 13 -23 9 -47
-5 -33 -4 -35 16 -30 19 5 21 2 18 -31 -3 -34 -1 -37 20 -34 29 4 52 -14 52
-42 0 -25 -38 -66 -62 -66 -21 0 -40 -25 -36 -47 4 -20 52 -32 141 -32 42 -1
59 -5 63 -16 4 -8 17 -15 30 -15 14 0 30 -10 40 -25 9 -14 23 -25 30 -25 8 0
14 -4 14 -9 0 -5 3 -16 6 -25 5 -12 -1 -16 -24 -16 -29 0 -30 -1 -19 -25 7
-14 18 -25 25 -25 7 0 11 4 8 9 -3 4 1 16 8 27 12 15 16 16 30 5 9 -7 16 -20
16 -27 0 -8 9 -14 20 -14 15 0 20 -7 20 -30 0 -37 37 -75 57 -59 17 15 43 -5
43 -32 0 -18 9 -19 130 -19 117 0 130 2 130 18 0 9 56 73 125 141 69 69 125
130 125 137 0 22 33 25 272 18 194 -6 238 -10 234 -21 -4 -11 50 -13 307 -12
172 0 306 3 299 6 -15 6 -6 23 14 23 8 0 14 -7 14 -15 0 -13 67 -15 539 -15
507 0 539 1 537 17 -1 13 8 19 28 21 31 4 53 -17 33 -30 -7 -4 6 -8 28 -8 32
0 42 4 50 22 9 21 15 23 77 20 76 -4 108 3 108 24 0 8 13 23 30 32 26 15 29
22 32 76 l3 59 92 -2 c89 -2 92 -1 95 21 2 15 10 23 22 23 10 0 22 10 27 23 5
12 14 22 20 22 7 0 25 12 40 26 15 14 39 36 53 49 17 15 23 30 19 43 -4 17 1
22 23 27 52 11 74 24 74 44 0 14 -5 18 -20 14 -23 -6 -26 1 -34 74 l-5 53 54
0 55 0 0 55 c0 42 3 55 15 55 8 0 15 -4 15 -9 0 -5 14 -3 30 5 36 18 43 64 11
64 -13 0 -21 9 -26 30 -8 38 3 73 21 66 12 -5 14 44 14 318 0 302 -1 324 -17
322 -16 -1 -18 11 -21 94 -4 118 2 144 28 137 19 -5 20 1 20 121 0 69 -3 122
-6 119 -4 -3 -15 -2 -26 4 -17 9 -18 22 -16 207 3 196 3 197 26 200 21 3 22 7
22 122 0 115 -1 119 -22 122 -23 3 -23 4 -26 200 -2 185 -1 198 16 207 11 6
22 7 26 4 3 -3 6 50 6 119 0 123 0 125 -22 124 l-23 -1 -3 197 c-2 185 -1 198
16 207 11 6 22 7 26 4 3 -4 5 803 4 1793 l-3 1799 -27 13 c-17 8 -28 21 -28
33 0 19 -14 19 -824 19 l-824 0 -5 -21 c-3 -11 -14 -23 -24 -25 -10 -3 -23
-15 -28 -27 -8 -18 -17 -21 -47 -19 -33 3 -38 1 -38 -18 0 -11 -8 -24 -17 -27
-10 -4 -26 -18 -37 -31 -14 -18 -24 -22 -47 -17 -25 6 -30 3 -39 -19 -8 -22
-16 -26 -47 -26 -30 0 -40 -5 -48 -22 -9 -20 -19 -23 -70 -26 -51 -2 -62 -6
-70 -25 -9 -20 -16 -22 -67 -19 -54 4 -58 2 -69 -22 -14 -29 -14 -29 -84 -27
-44 2 -51 -1 -60 -21 -9 -22 -16 -23 -117 -26 -96 -2 -107 -5 -113 -22 -7 -23
-2 -22 -127 -20 -97 2 -98 1 -108 -24 -5 -14 -13 -26 -17 -26 -5 0 -298 0
-652 0 -658 -1 -671 0 -671 37 0 12 -22 14 -122 13 -156 -2 -146 -3 -153 20
-5 17 -17 20 -93 22 -82 3 -87 4 -90 26 -3 20 -9 22 -68 22 -60 0 -65 2 -74
26 -10 24 -14 26 -68 22 -51 -3 -58 -1 -67 19 -8 19 -18 23 -75 25 -59 3 -65
5 -68 26 -3 18 -10 22 -42 22 -31 0 -43 5 -56 25 -13 19 -21 23 -45 18 -24 -4
-30 -1 -40 21 -7 14 -18 26 -26 26 -7 0 -19 12 -25 26 -10 20 -17 25 -37 21
-20 -4 -35 3 -63 29 -21 19 -38 41 -38 49 0 13 -102 15 -824 15 l-824 0 -6
-24z m3344 -819 c0 -8 -11 -19 -25 -25 -20 -9 -25 -19 -25 -46 0 -58 11 -94
31 -99 10 -3 23 -17 29 -32 l10 -27 150 3 c93 2 154 -1 160 -7 14 -14 2 -42
-20 -49 -11 -3 -22 -15 -25 -26 -4 -10 -13 -19 -20 -19 -18 0 -37 -34 -29 -53
3 -8 14 -17 25 -20 15 -4 19 -14 19 -47 0 -32 3 -41 14 -37 21 8 36 -13 36
-53 0 -27 5 -38 22 -45 12 -6 25 -21 28 -35 5 -21 12 -25 46 -25 l39 0 3 -67
c3 -60 5 -67 25 -70 21 -3 22 -7 18 -70 -3 -67 -3 -68 23 -68 25 0 26 -3 26
-50 l0 -50 -50 0 -49 0 6 65 c5 60 4 65 -14 65 -29 0 -42 19 -36 55 5 29 2 33
-26 43 -21 7 -31 18 -31 31 0 20 -6 21 -125 21 l-125 0 -11 -27 c-6 -16 -9
-57 -6 -95 6 -67 5 -68 -19 -68 l-24 0 0 -179 c0 -179 0 -180 23 -183 19 -3
22 -9 22 -53 l0 -50 -38 0 c-23 0 -42 -6 -47 -15 -7 -10 -10 2 -10 42 0 51 -2
57 -22 60 l-23 3 -3 231 c-2 230 -3 232 -25 238 -46 12 -126 6 -139 -10 -7 -9
-26 -28 -41 -44 -27 -26 -29 -31 -25 -101 l3 -74 -50 0 -50 0 0 45 c0 42 2 45
28 48 23 3 32 13 51 56 13 29 33 59 43 67 12 8 20 25 19 39 -1 17 6 28 22 35
21 9 23 15 20 90 l-3 80 -81 3 c-80 3 -82 2 -88 -23 -6 -25 -9 -26 -79 -23
l-72 3 0 45 0 45 67 3 c60 3 67 5 70 25 2 18 10 22 37 22 26 0 36 6 44 23 6
12 20 25 33 28 12 3 24 15 27 26 3 11 15 22 26 25 18 4 21 13 21 54 0 58 -19
73 -92 71 -27 0 -48 3 -48 7 0 16 28 20 62 10 18 -5 52 -9 75 -9 36 0 43 3 43
19 0 12 11 25 28 33 26 13 27 16 26 92 0 70 3 81 25 106 27 30 71 40 71 17z
m232 -3577 c5 0 6 -29 4 -64 -5 -64 -5 -65 24 -71 28 -6 29 -7 23 -58 -7 -53
-25 -83 -43 -72 -7 4 -9 -2 -4 -19 7 -28 -2 -77 -14 -75 -22 4 -27 -6 -30 -53
-2 -47 -8 -57 -54 -106 -47 -50 -50 -56 -44 -91 7 -44 -8 -63 -39 -50 -30 12
-35 11 -35 -8 0 -15 -2 -16 -10 -3 -6 10 -9 -15 -8 -75 l2 -90 -47 -3 -47 -3
0 -74 c0 -62 -3 -76 -19 -84 -10 -6 -21 -7 -25 -4 -4 4 -6 -7 -4 -25 1 -18 8
-32 15 -32 7 0 16 -1 21 -2 12 -2 30 -32 26 -43 -3 -6 10 -12 32 -13 22 -2 33
1 29 8 -3 6 3 10 14 10 12 0 21 -4 21 -10 0 -5 18 -10 41 -10 22 0 38 4 35 9
-3 5 2 15 11 22 15 12 16 12 10 -3 -4 -12 -2 -15 7 -12 7 3 12 17 10 31 -5 46
-1 48 124 47 l117 -1 -1 -41 c-1 -23 2 -42 7 -42 5 0 9 -5 9 -11 0 -5 -5 -7
-11 -3 -8 4 -8 0 0 -15 7 -11 14 -21 17 -21 3 0 2 6 -2 13 -6 8 -3 8 9 -2 9
-7 23 -11 31 -8 19 8 139 -110 132 -129 -3 -7 -1 -16 4 -19 6 -3 5 -16 -1 -33
-8 -21 -7 -29 7 -39 9 -7 21 -10 25 -7 5 3 10 -108 10 -245 1 -138 2 -259 3
-268 1 -24 -55 -30 -73 -9 -10 12 -18 13 -33 5 -11 -6 -33 -8 -49 -5 -29 5
-29 5 -29 -41 0 -29 5 -50 15 -57 9 -6 19 -35 24 -65 5 -35 16 -60 29 -70 15
-12 20 -27 18 -56 -1 -39 -2 -40 -44 -46 -49 -6 -52 -5 -52 33 0 26 -3 28 -39
28 -32 0 -41 4 -47 22 -16 52 -72 68 -101 29 -11 -14 -12 -13 -13 7 0 19 -5
22 -45 22 -41 0 -45 2 -45 24 0 22 -4 24 -42 23 l-43 -2 0 50 0 50 47 2 c43 2
48 0 54 -22 5 -19 13 -25 33 -25 15 0 32 5 39 12 9 9 12 6 12 -16 0 -26 2 -27
38 -24 31 3 37 0 37 -17 0 -16 8 -21 41 -23 39 -3 42 -1 54 30 19 50 20 76 4
82 -19 7 -18 32 1 40 8 3 15 18 15 33 0 20 -3 24 -9 14 -5 -8 -7 -20 -4 -28 3
-7 -2 -13 -11 -13 -10 0 -16 9 -17 28 -3 56 -7 70 -25 88 -43 42 -106 23 -117
-36 -2 -15 -5 -6 -6 22 -1 44 16 78 39 78 5 0 8 9 7 19 0 11 -4 18 -7 17 -11
-7 -45 12 -45 25 0 7 -9 18 -20 24 -19 9 -75 62 -75 69 0 8 -73 76 -81 76 -5
0 -9 4 -9 9 0 13 -130 141 -143 141 -6 0 -7 3 -4 6 3 4 -5 16 -19 27 -24 18
-26 25 -22 78 2 32 1 56 -3 54 -3 -3 -13 1 -22 8 -13 10 -17 35 -18 132 -1 97
-4 122 -18 132 -15 12 -14 13 2 7 9 -3 17 -1 17 5 0 6 -3 10 -7 10 -5 -1 -24
-1 -44 0 -36 1 -37 2 -41 42 -4 39 10 69 32 69 4 0 10 9 13 19 4 18 13 20 68
18 52 -2 64 1 64 13 0 18 66 90 82 90 13 0 25 29 17 41 -3 5 -2 18 1 29 5 15
14 20 34 18 21 -2 36 7 62 37 19 21 43 47 53 57 11 10 16 18 10 18 -5 0 -1 5
9 11 9 5 17 15 17 20 0 6 -4 8 -9 4 -6 -3 -6 6 -1 25 5 19 5 28 -1 25 -5 -4
-9 1 -9 9 0 12 -10 16 -39 16 -37 0 -59 19 -46 40 2 4 -25 7 -60 6 -53 -1 -68
-6 -85 -24 -16 -17 -32 -22 -73 -22 -64 0 -85 -14 -89 -60 -3 -34 -4 -35 -48
-35 l-45 0 -3 52 -3 51 61 -3 c83 -3 159 23 211 74 15 14 34 32 43 39 13 11
17 26 14 63 -3 44 0 51 22 62 20 10 24 19 22 47 -1 18 2 36 7 39 7 5 117 5
183 1z"/>
<path d="M2099 4109 c-8 -5 -32 -9 -54 -9 -23 0 -46 -5 -52 -11 -6 -6 -22 -17
-35 -23 -20 -10 -23 -19 -24 -79 -1 -66 0 -69 29 -83 21 -11 28 -21 24 -35 -3
-10 -2 -21 2 -24 10 -5 7 -68 -4 -84 -6 -11 20 -40 38 -41 4 0 7 -15 7 -34 0
-22 7 -38 20 -47 15 -11 20 -27 21 -71 l2 -57 36 -3 c33 -3 36 -6 39 -36 2
-22 -2 -34 -12 -38 -13 -5 -16 -23 -16 -93 0 -47 4 -92 9 -99 4 -7 4 -34 0
-60 -4 -28 -3 -48 3 -51 22 -8 44 -42 42 -68 -1 -35 15 -51 56 -55 l33 -3 -2
-128 -2 -129 38 4 c43 3 42 8 24 -102 -13 -83 -13 -278 1 -303 7 -14 7 -17 -1
-13 -6 4 -11 3 -11 -3 0 -5 10 -11 23 -13 21 -3 22 -7 22 -110 0 -58 2 -105 3
-103 2 2 13 -5 25 -16 19 -16 22 -29 22 -93 0 -66 3 -77 23 -92 19 -15 22 -26
22 -90 0 -63 3 -76 23 -94 21 -20 22 -29 21 -138 -1 -64 0 -98 3 -74 l4 43 57
-3 57 -3 3 -85 c2 -68 7 -89 23 -106 17 -18 19 -29 13 -75 -8 -61 -18 -79 -45
-79 -16 0 -19 -8 -19 -46 0 -25 4 -43 9 -39 24 14 36 -23 35 -103 -2 -77 -1
-81 22 -86 16 -4 24 -14 25 -29 0 -12 0 -63 1 -114 0 -86 1 -92 22 -95 13 -2
22 -11 24 -25 2 -12 11 -25 21 -28 21 -6 41 -46 41 -81 0 -17 -8 -27 -26 -34
-20 -8 -25 -16 -22 -38 3 -24 8 -27 43 -30 45 -4 68 -19 61 -39 -4 -10 6 -13
39 -13 38 0 44 3 47 23 3 19 11 23 53 27 70 7 71 29 5 91 -48 45 -52 52 -46
82 3 19 13 42 22 53 8 10 12 12 8 4 -7 -13 -5 -13 9 -1 12 9 17 28 17 61 0 38
-4 50 -22 63 -21 13 -23 22 -23 98 0 66 -3 83 -14 81 -23 -5 -37 27 -36 81 0
61 -9 75 -51 70 -37 -5 -42 4 -36 71 3 37 9 50 23 53 20 6 26 38 9 48 -6 4 -8
10 -5 14 2 5 -12 8 -33 7 l-37 -1 -3 67 c-3 60 -5 67 -25 70 -18 2 -23 10 -25
45 -3 47 11 83 33 83 12 0 15 11 13 44 -2 24 -7 42 -13 40 -23 -9 -34 39 -37
160 -1 69 -6 126 -9 126 -25 0 -34 31 -33 108 2 73 0 82 -16 82 -27 0 -38 21
-36 69 2 34 -3 49 -21 67 -24 24 -26 38 -27 194 -1 64 -4 78 -23 97 -15 15
-21 31 -18 51 2 23 -1 29 -13 28 -10 0 -23 12 -31 31 -8 17 -22 34 -32 36 -16
4 -18 13 -15 54 4 59 15 90 26 73 5 -8 10 -2 13 16 9 48 5 65 -20 77 -12 5
-24 17 -24 26 -1 9 -2 23 -3 31 0 8 -7 14 -13 13 -7 -2 -14 5 -14 15 -1 9 -2
24 -3 32 -1 8 3 20 7 27 6 9 2 11 -15 8 -46 -9 -56 1 -50 53 5 47 27 86 43 76
5 -3 9 6 9 20 0 20 -4 24 -20 21 -16 -3 -22 3 -26 25 -4 20 -13 30 -28 32 -19
3 -21 9 -20 81 1 55 5 81 14 87 8 5 17 7 21 4 19 -11 0 49 -20 62 -19 14 -21
22 -15 60 8 56 -2 114 -21 114 -23 0 -29 22 -26 98 2 51 -1 72 -8 67 -6 -3
-11 -2 -11 4 0 5 3 11 8 14 4 2 1 2 -5 1 -22 -5 -41 38 -38 86 2 39 -1 47 -26
66 -16 11 -26 24 -22 27 3 4 1 7 -6 7 -7 0 -10 4 -7 8 7 11 -27 12 -45 1z"/>
<path d="M630 4079 c-19 -10 -35 -25 -35 -32 0 -6 -10 -16 -23 -22 -12 -5 -25
-18 -28 -27 -3 -10 -15 -26 -28 -35 -15 -13 -22 -26 -19 -44 2 -19 -3 -29 -22
-39 -14 -7 -25 -19 -25 -26 0 -8 -11 -16 -25 -20 -13 -3 -24 -9 -23 -13 0 -3
0 -32 -1 -63 -1 -45 -4 -58 -16 -58 -9 0 -20 -11 -25 -24 -5 -14 -19 -26 -32
-28 -21 -3 -23 -8 -23 -68 0 -60 -2 -65 -21 -65 -12 -1 -29 -7 -38 -14 -10 -9
-20 -11 -26 -5 -7 7 -14 215 -10 301 0 8 21 11 63 10 56 -2 62 0 65 19 2 12
14 26 28 32 30 14 31 40 2 44 -31 4 -37 44 -9 53 25 8 28 33 5 42 -9 3 -41 6
-72 7 -56 1 -57 1 -57 31 0 17 5 33 10 37 12 9 -120 10 -152 2 -20 -5 -23 -13
-23 -54 0 -37 4 -49 18 -52 16 -5 18 -17 17 -114 0 -98 -2 -109 -17 -108 -16
2 -18 -10 -18 -112 0 -93 3 -112 14 -108 8 3 17 0 21 -6 11 -18 -6 -200 -19
-197 -7 1 -11 -14 -11 -38 0 -24 4 -39 11 -38 7 1 13 -25 17 -68 7 -78 2 -100
-19 -92 -12 4 -14 -17 -14 -126 0 -107 3 -131 14 -131 8 0 18 -5 21 -10 11
-18 -6 -199 -19 -197 -6 1 -12 -10 -14 -24 -2 -19 2 -28 17 -32 18 -4 20 -15
23 -103 3 -104 -4 -139 -28 -130 -11 4 -14 -6 -14 -48 0 -45 3 -54 18 -52 15
1 17 -12 20 -112 3 -108 2 -114 -18 -119 -20 -5 -20 -10 -20 -379 l1 -373 22
-3 c17 -2 23 -11 25 -40 2 -26 7 -35 17 -32 7 3 16 -3 20 -15 8 -26 -2 -44
-21 -37 -10 4 -14 -3 -14 -23 0 -33 46 -63 56 -36 4 8 10 15 16 15 13 0 0 -40
-20 -63 -15 -17 -15 -20 8 -37 16 -12 34 -17 48 -13 20 5 23 2 20 -18 -2 -16
-9 -24 -21 -23 -12 1 -17 -5 -17 -21 0 -20 6 -25 45 -31 39 -5 45 -10 45 -30
0 -19 5 -24 25 -24 23 0 31 -13 26 -42 0 -5 2 -7 7 -7 31 5 44 -2 40 -24 -4
-20 -1 -23 19 -19 18 3 26 -1 29 -16 3 -11 17 -25 31 -31 19 -9 24 -17 21 -35
-4 -21 -2 -22 31 -16 20 4 42 5 49 2 21 -7 13 -30 -12 -36 -19 -5 -22 -11 -18
-31 6 -32 52 -37 52 -5 0 15 7 20 25 20 25 0 35 -23 16 -34 -14 -9 12 -56 30
-56 9 0 19 6 22 14 3 7 17 16 31 18 28 6 36 -6 11 -16 -13 -5 -13 -9 -3 -28
19 -34 28 -38 88 -36 51 1 52 1 16 7 -75 11 -50 42 27 33 33 -4 40 -9 54 -43
l15 -39 585 0 c337 0 582 4 579 9 -14 23 25 32 125 28 91 -2 104 -5 103 -20
-2 -15 10 -17 93 -17 66 0 92 3 87 11 -11 18 17 29 77 29 68 0 95 16 85 53 -4
18 -13 27 -25 27 -35 0 -52 12 -67 49 -14 34 -14 37 7 53 29 24 39 23 39 -6 0
-33 17 -42 41 -20 25 22 24 33 -2 27 -27 -7 -39 13 -34 54 3 28 1 33 -16 33
-27 0 -37 33 -35 112 2 37 0 66 -3 66 -3 -1 -13 2 -23 6 -14 7 -16 20 -11 101
5 76 3 97 -11 116 -9 13 -16 20 -16 16 0 -5 -6 -2 -14 5 -10 11 -13 37 -11
101 2 48 0 88 -3 88 -4 1 -34 2 -67 3 l-60 1 -3 54 -3 53 33 -3 c18 -2 39 0
46 5 16 10 14 115 -2 117 -6 1 -24 2 -41 3 -29 1 -30 2 -33 58 -3 53 -1 59 22
69 31 14 30 46 -1 54 -13 3 -23 12 -23 20 0 8 -6 15 -14 15 -21 0 -29 18 -33
72 -2 32 2 52 13 63 9 8 19 13 22 11 4 -2 7 9 8 26 1 24 -2 29 -17 25 -14 -4
-21 1 -25 17 -3 12 -4 26 -3 32 4 21 -2 34 -15 34 -24 0 -28 16 -28 110 0 63
-3 87 -11 84 -32 -11 -37 12 -39 194 -2 174 -3 181 -23 184 -17 3 -20 11 -22
53 -5 90 -5 94 -12 93 -3 0 -23 0 -43 1 l-38 1 0 100 c0 87 2 101 19 109 10 6
21 7 25 4 4 -4 6 7 4 24 -1 18 -5 30 -8 28 -11 -6 -51 15 -45 25 11 17 -18 35
-55 35 l-35 0 4 74 c3 78 17 115 38 106 7 -2 13 3 13 11 0 8 -5 12 -10 9 -6
-3 -10 -1 -10 5 0 6 -4 9 -9 6 -12 -8 -21 19 -21 66 l0 40 -37 -4 -38 -3 -3
46 c-2 37 2 50 23 73 14 15 30 24 35 21 6 -4 10 11 10 37 0 24 3 54 7 67 5 19
3 22 -8 16 -11 -7 -11 -5 1 11 8 10 11 16 6 12 -5 -4 -17 -3 -27 3 -16 8 -19
21 -19 72 0 37 -5 69 -12 76 -7 8 -8 11 -2 8 6 -3 11 0 11 8 0 8 -3 12 -7 10
-4 -3 -15 4 -25 15 -14 15 -17 33 -14 97 4 73 3 78 -19 89 -13 6 -29 17 -35
23 -17 17 -134 14 -162 -5 -14 -9 -36 -14 -50 -12 -14 3 -25 1 -25 -4 0 -5 -5
-6 -10 -3 -6 4 -10 3 -9 -2 1 -4 -1 -16 -6 -27 -5 -11 -4 -26 3 -37 8 -12 8
-20 1 -24 -19 -12 -5 -59 21 -71 24 -11 25 -15 25 -93 -1 -52 3 -80 9 -78 20
7 35 -42 29 -92 -7 -63 3 -105 23 -97 8 3 13 2 10 -3 -3 -5 1 -12 10 -15 10
-4 14 -12 10 -22 -3 -9 -3 -20 0 -26 8 -12 8 -107 1 -128 -7 -21 -5 -50 3 -45
4 2 14 -1 23 -8 12 -9 17 -31 18 -84 1 -50 5 -70 13 -66 6 4 4 -2 -4 -13 -8
-10 -10 -16 -6 -12 5 4 20 -4 33 -18 24 -26 30 -44 13 -44 -5 0 -10 -4 -10
-10 0 -5 7 -7 15 -4 8 4 15 1 15 -5 0 -6 -4 -11 -10 -11 -5 0 -10 -3 -10 -7 0
-5 15 -8 32 -7 58 2 58 2 58 -130 0 -96 -3 -126 -16 -142 -8 -10 -13 -13 -9
-7 4 8 1 11 -7 8 -7 -3 -14 -25 -16 -50 -2 -35 1 -43 12 -39 8 3 18 -1 22 -8
6 -9 11 0 14 27 4 32 9 41 28 43 39 6 52 -14 52 -83 0 -43 5 -66 15 -75 18
-15 20 -85 2 -120 -7 -13 -21 -27 -32 -30 -36 -9 -30 -86 7 -92 24 -3 26 -12
29 -119 1 -31 -2 -62 -6 -69 -5 -7 -2 -16 6 -21 8 -5 19 -12 26 -17 8 -5 13
-41 14 -99 1 -82 3 -91 20 -88 23 5 32 -34 27 -115 -1 -33 0 -59 3 -57 12 4
48 -34 48 -51 2 -36 0 -89 -4 -121 -2 -18 -1 -31 2 -27 9 9 43 -13 43 -28 0
-8 7 -19 15 -26 19 -16 19 -30 0 -30 -20 0 -19 -16 1 -24 10 -4 13 -2 8 6 -5
8 0 9 17 5 13 -4 30 -7 37 -7 21 0 16 -110 -7 -134 -15 -16 -20 -39 -22 -98
-2 -42 1 -81 5 -85 5 -5 6 -2 2 7 -4 8 4 3 17 -12 23 -24 25 -36 24 -100 -1
-60 2 -74 15 -76 24 -5 27 -20 29 -137 1 -96 3 -105 20 -105 14 0 21 -9 26
-31 3 -17 9 -26 13 -20 4 7 11 2 18 -14 11 -23 9 -26 -15 -36 -20 -7 -24 -12
-14 -18 8 -5 9 -11 3 -15 -5 -3 -16 1 -23 10 -7 8 -24 14 -38 13 -42 -3 -62
10 -51 31 19 36 10 140 -12 140 -5 0 -6 -6 -2 -12 4 -8 3 -10 -2 -5 -5 5 -9
12 -9 15 0 4 -5 14 -10 22 -5 8 -10 49 -10 90 -1 62 -3 75 -16 74 -9 -1 -24
12 -34 29 -10 16 -13 27 -6 23 6 -4 11 -2 11 4 0 6 -8 10 -17 9 -10 -1 -30 -1
-45 0 -27 1 -28 4 -28 49 0 50 7 66 28 73 20 7 22 183 3 201 -12 11 -13 11 -6
-1 6 -10 4 -12 -6 -6 -7 5 -25 9 -39 9 -23 1 -25 5 -27 49 -2 41 2 53 23 72
33 30 31 88 -2 104 -21 9 -22 14 -17 85 4 56 3 76 -6 76 -7 0 -9 4 -6 10 3 6
-1 7 -10 4 -11 -5 -18 0 -22 14 -3 12 -16 28 -29 37 -19 12 -24 24 -24 59 0
53 8 76 25 76 8 0 17 5 20 10 8 13 -4 52 -15 45 -17 -11 -29 24 -31 90 -1 39
-7 76 -13 84 -8 11 -8 13 2 7 6 -4 12 -3 12 2 0 5 -9 12 -20 15 -11 3 -17 1
-14 -4 6 -10 -46 -1 -57 10 -11 11 5 116 19 117 6 1 17 2 22 3 20 2 9 38 -15
49 -14 6 -26 16 -26 22 -3 25 -4 29 -10 34 -3 3 -2 31 1 62 6 52 5 57 -17 65
-24 9 -24 4 -25 147 0 31 -5 63 -12 71 -8 12 -8 13 2 7 6 -4 12 -3 12 3 0 5
-10 11 -22 13 -19 2 -24 11 -29 53 -3 28 -2 53 4 56 6 4 5 14 -3 25 -11 18
-11 18 -6 -1 5 -17 4 -18 -6 -4 -8 9 -32 16 -63 18 -27 1 -54 6 -58 10 -5 5
-7 26 -5 47 2 32 7 40 26 42 20 3 22 9 22 62 0 53 -2 58 -25 64 -23 6 -24 10
-20 56 4 57 10 70 31 70 25 0 18 67 -10 95 -16 16 -24 35 -24 60 0 20 -3 39
-6 42 -3 3 0 13 7 21 8 11 8 14 0 9 -7 -4 -14 0 -17 11 -5 14 -15 19 -39 18
-29 -1 -32 2 -35 33 -5 46 5 81 23 81 7 0 17 5 21 12 5 7 3 8 -6 3 -10 -6 -11
-4 -4 6 17 27 10 68 -13 78 -21 10 -23 17 -23 91 0 50 -4 80 -11 80 -5 0 -7 5
-4 10 3 6 0 10 -8 10 -8 0 -20 14 -26 30 -5 17 -17 30 -25 30 -9 0 -23 11 -32
25 -9 14 -23 25 -30 25 -8 0 -19 -11 -24 -25 -9 -24 -19 -29 -47 -26 -8 1 -10
-5 -7 -14 3 -8 1 -15 -5 -15 -6 0 -11 -7 -11 -15 0 -8 -7 -15 -16 -15 -10 0
-14 -6 -10 -15 3 -8 1 -15 -4 -15 -6 0 -10 -13 -10 -30 0 -16 -4 -30 -8 -30
-5 0 -17 -19 -28 -42 -19 -45 -33 -60 -46 -52 -4 3 -8 -2 -8 -11 0 -20 -27
-48 -39 -41 -16 10 -6 -33 11 -46 11 -9 18 -31 20 -68 l3 -55 -65 1 c-64 1
-65 0 -75 -30 -7 -20 -17 -30 -28 -30 -24 2 -18 -29 7 -36 11 -3 24 -13 30
-23 9 -14 6 -21 -17 -40 -25 -19 -27 -26 -18 -48 7 -20 6 -32 -4 -46 -8 -11
-15 -42 -17 -69 l-3 -49 -70 0 c-114 -1 -114 -1 -117 -103 l-3 -87 -34 3 c-18
1 -40 -3 -47 -9 -11 -9 -17 -9 -28 0 -11 9 -15 7 -19 -9 -3 -13 -1 -18 6 -13
8 4 7 1 -1 -9 -7 -8 -10 -23 -6 -32 4 -10 -2 -19 -18 -26 -13 -7 -29 -25 -35
-41 -6 -16 -18 -29 -27 -29 -11 0 -16 -9 -16 -30 0 -37 -28 -83 -44 -73 -6 4
-5 -1 3 -10 12 -15 9 -20 -18 -46 -17 -16 -31 -32 -31 -36 0 -8 -26 -35 -37
-38 -4 -1 -8 -15 -8 -31 0 -16 -6 -31 -13 -34 -6 -2 -9 -9 -5 -15 4 -6 0 -8
-10 -4 -9 3 -18 0 -21 -9 -3 -9 -1 -12 4 -9 6 3 10 4 10 2 0 -3 -15 -14 -33
-25 -29 -17 -33 -24 -29 -50 2 -16 -1 -33 -7 -36 -6 -4 -11 -15 -11 -25 0 -10
-7 -24 -15 -31 -8 -7 -15 -26 -15 -42 0 -32 -27 -81 -41 -72 -5 3 -9 26 -9 51
0 36 4 46 19 50 32 8 38 103 6 103 -17 0 -28 31 -15 44 7 7 14 4 24 -10 14
-18 15 -18 21 -1 4 9 14 17 22 17 9 0 13 8 11 23 -2 12 -9 21 -16 19 -6 -1
-12 5 -12 13 0 8 9 15 20 15 20 0 23 5 24 49 1 16 12 29 34 41 46 25 47 27 28
45 -11 11 -16 34 -16 71 0 51 1 54 25 54 17 0 29 8 37 25 13 28 55 35 64 10 5
-11 10 -12 24 -2 11 6 15 14 10 17 -16 10 23 75 42 72 14 -2 17 3 16 23 -1 14
-7 24 -13 21 -13 -5 -45 12 -45 24 0 6 13 16 29 22 29 13 30 13 16 52 -16 47
-12 58 20 50 17 -4 26 0 34 15 9 15 20 20 46 19 38 -1 45 2 49 26 1 8 14 24
28 36 26 20 27 24 25 115 l-3 95 48 1 c26 1 53 3 58 4 6 1 16 3 23 4 9 1 12
12 9 36 -4 35 13 70 29 59 5 -3 9 1 9 9 0 8 13 25 28 37 21 17 28 31 27 52 -1
23 5 34 25 47 24 14 32 42 16 58 -2 3 16 23 42 45 26 22 54 51 62 64 8 13 22
26 30 29 20 6 21 71 1 67 -19 -4 -41 17 -41 39 0 12 7 19 20 19 24 0 38 26 22
42 -13 13 -143 22 -178 14 -18 -5 -24 -13 -24 -35 0 -16 -3 -36 -6 -45 -7 -17
-44 -22 -44 -6 0 15 -16 12 -34 -6 -9 -8 -16 -29 -16 -45 0 -22 -5 -30 -25
-35 -21 -5 -25 -12 -25 -45 0 -40 -17 -61 -104 -134 -36 -30 -46 -60 -24 -67
7 -3 -6 -17 -27 -31 -22 -15 -38 -30 -37 -33 2 -3 -5 -14 -16 -25 -15 -13 -22
-15 -25 -6 -3 7 -3 -1 -2 -18 2 -16 4 -33 4 -37 1 -4 15 -6 33 -4 50 6 58 -1
58 -55 0 -52 -3 -54 -57 -49 -16 1 -26 -6 -32 -23 -8 -21 -16 -25 -53 -26 -51
0 -75 -4 -85 -15 -4 -4 -8 -44 -8 -89 l-1 -82 -42 1 c-32 1 -42 -3 -38 -13 7
-16 -31 -56 -45 -48 -5 4 -9 3 -8 -2 1 -4 -3 -21 -9 -36 -15 -36 -17 -92 -4
-132 5 -16 9 -43 8 -60 -1 -26 -5 -30 -44 -38 -24 -5 -46 -6 -50 -3 -3 4 -5
30 -3 59 1 37 7 57 20 68 28 24 40 159 16 183 -10 9 -16 18 -14 19 2 2 17 8
32 15 15 6 30 20 34 29 10 28 35 53 46 46 6 -4 8 4 3 20 -5 21 -1 30 18 43 14
8 28 24 31 35 4 10 14 19 24 19 15 0 18 11 19 81 1 45 5 86 8 91 3 5 20 8 37
6 26 -3 33 2 52 37 12 22 25 39 31 38 5 -1 10 11 10 25 1 26 62 102 82 102 22
0 6 29 -20 34 -22 4 -28 11 -28 30 0 16 7 27 21 31 18 6 20 12 15 46 -6 36 -4
40 19 49 18 7 25 17 25 35 0 20 5 25 23 25 13 0 32 9 42 20 21 23 43 26 51 6
3 -8 14 -11 28 -9 21 4 23 10 22 51 -1 42 -5 50 -38 75 -31 22 -48 27 -95 26
-38 0 -70 -7 -93 -20z"/>
</g>
</svg>
